<svg data-v-0dd9719b="" version="1.0" xmlns="http://www.w3.org/2000/svg" xmlns:xlink="http://www.w3.org/1999/xlink" width="100%" height="100%" viewBox="0 0 340.000000 250.000000" preserveAspectRatio="xMidYMid meet" color-interpolation-filters="sRGB" style="margin: auto;"> <rect data-v-0dd9719b="" x="0" y="0" width="100%" height="100%" fill="#ffffff" fill-opacity="1" class="background"></rect> <rect data-v-0dd9719b="" x="0" y="0" width="100%" height="100%" fill="url(#watermark)" fill-opacity="1" class="watermarklayer"></rect> <g data-v-0dd9719b="" fill="#f7b634" class="icon-text-wrapper icon-svg-group iconsvg" transform="translate(50.61000061035156,96.62874984741211)"><g class="iconsvg-imagesvg" transform="translate(0,7.804569244384766)"><g><rect fill="#f7b634" fill-opacity="0" stroke-width="2" x="0" y="0" width="60" height="41.13336121261149" class="image-rect"></rect> <svg filter="url(#colors5446201698)" x="0" y="0" width="60" height="41.13336121261149" filtersec="colorsf3253961856" class="image-svg-svg primary" style="overflow: visible;"><svg xmlns="http://www.w3.org/2000/svg" xmlns:xlink="http://www.w3.org/1999/xlink" version="1.1" x="0px" y="0px" viewBox="5 19.100000381469727 90 61.70000457763672" xml:space="preserve"><g><path d="M95,80.8H5l28.8-49.9l9.4,16.3l16.2-28.1L95,80.8z M14.6,75.3h70.8l-26-45L43.2,58.3L33.8,42L14.6,75.3z"></path></g></svg></svg> <defs><filter id="colors5446201698"><feColorMatrix type="matrix" values="0 0 0 0 0.125  0 0 0 0 0.23828125  0 0 0 0 0.53125  0 0 0 1 0" class="icon-fecolormatrix"></feColorMatrix></filter> <filter id="colorsf3253961856"><feColorMatrix type="matrix" values="0 0 0 0 0.99609375  0 0 0 0 0.99609375  0 0 0 0 0.99609375  0 0 0 1 0" class="icon-fecolormatrix"></feColorMatrix></filter> <filter id="colorsb9308127418"><feColorMatrix type="matrix" values="0 0 0 0 0  0 0 0 0 0  0 0 0 0 0  0 0 0 1 0" class="icon-fecolormatrix"></feColorMatrix></filter></defs></g></g> <g transform="translate(67,0)"><g data-gra="path-name" fill-rule="" class="tp-name iconsvg-namesvg" transform="translate(0,0)"><g transform="scale(1)"><g><path d="M23.38-42.67L23.38-6.9 34.72-6.9Q35.95-6.9 36.34-8.04L36.34-8.04 36.47-8.7 36.47-31.95Q36.47-32.61 37.18-32.74L37.18-32.74 37.31-32.74Q38.1-32.74 38.23-32.12L38.23-32.12 38.28-32.08 38.28-8.7Q38.28-6.68 36.52-5.58L36.52-5.58Q35.68-5.1 34.72-5.1L34.72-5.1 10.15-5.1Q8.13-5.1 7.08-6.86L7.08-6.86Q6.59-7.69 6.59-8.66L6.59-8.66 6.59-8.7 6.68-32.08Q6.68-32.65 7.29-32.87L7.29-32.87Q7.38-32.92 7.47-32.92L7.47-32.92Q8.39-32.78 8.48-32.08L8.48-32.08 8.48-32.04 8.35-8.7Q8.35-7.43 9.54-7.03L9.54-7.03 10.15-6.9 21.62-6.9 21.62-42.54Q21.62-43.2 22.28-43.33L22.28-43.33 22.41-43.33Q23.2-43.33 23.33-42.71L23.33-42.71 23.38-42.67ZM70-17.27L70-28.48 62.53-28.48Q60.56-15.91 53.39-11.95L53.39-11.95 53.22-11.91 53.26-8.48Q53.26-7.21 54.45-6.81L54.45-6.81 55.06-6.68 80.33-6.68Q81.61-6.68 82.05-7.82L82.05-7.82 82.13-8.48 82.13-26.67Q82.13-27.95 80.95-28.34L80.95-28.34 80.33-28.48 71.81-28.48 71.81-17.27Q71.81-16.39 72.73-16.39L72.73-16.39 76.99-16.39Q78.09-16.39 78.27-17.4L78.27-17.4 79.1-22.06Q79.15-22.63 79.8-22.68L79.8-22.68 80.07-22.68Q80.77-22.54 80.86-21.93L80.86-21.93 80.86-21.71 80.02-17.05Q79.54-14.59 76.99-14.59L76.99-14.59 72.73-14.59Q70-14.59 70-17.27L70-17.27ZM60.73-28.48L54.84-28.48Q53.66-28.48 53.17-27.33L53.17-27.33 53.09-26.67 53.17-13.93Q58.84-17.58 60.73-28.48L60.73-28.48ZM62.84-30.28L70-30.28 70-39.33 63.37-39.33Q63.37-34.37 62.84-30.28L62.84-30.28ZM71.81-39.33L71.81-30.28 80.33-30.28Q82.44-30.28 83.5-28.43L83.5-28.43Q83.94-27.69 83.94-26.72L83.94-26.72 83.94-8.48Q83.94-6.33 82.13-5.32L82.13-5.32Q81.3-4.88 80.33-4.88L80.33-4.88 55.06-4.88Q53.04-4.88 51.99-6.64L51.99-6.64Q51.46-7.47 51.46-8.39L51.46-8.39 51.46-8.48 51.28-26.67Q51.24-28.7 53-29.79L53-29.79Q53.88-30.28 54.84-30.28L54.84-30.28 61.04-30.28Q61.57-34.89 61.57-39.29L61.57-39.29 61.57-39.33 48.38-39.33Q47.68-39.33 47.55-39.99L47.55-39.99 47.55-40.12Q47.55-40.96 48.21-41.09L48.21-41.09 48.38-41.13 87.14-41.13Q87.85-41.13 87.98-40.47L87.98-40.47 87.98-40.34Q87.98-39.51 87.36-39.38L87.36-39.38 87.32-39.33 71.81-39.33ZM111.62-8.22L111.62-18.15Q111.62-18.81 112.28-18.94L112.28-18.94 112.41-18.94Q113.2-18.94 113.33-18.33L113.33-18.33 113.38-18.28 113.38-8.31Q113.38-1.63 106.83-1.63L106.83-1.63Q106.13-1.63 105.29-1.71L105.29-1.71Q104.72-1.71 104.55-2.29L104.55-2.29Q104.5-2.37 104.5-2.46L104.5-2.46 104.5-2.5Q104.5-3.3 105.12-3.47L105.12-3.47Q105.21-3.52 105.29-3.52L105.29-3.52Q111.53-3.25 111.62-8.22L111.62-8.22ZM92.59-4.31Q92.02-4.17 91.71-4.79L91.71-4.79 91.67-4.97 91.67-5.23Q91.67-5.84 92.2-6.02L92.2-6.02Q92.24-6.06 92.29-6.06L92.29-6.06Q101.65-7.95 109.34-11.07L109.34-11.07Q110.04-11.38 110.35-10.68L110.35-10.68 110.39-10.63Q110.74-9.84 110.13-9.45L110.13-9.45 110.04-9.4Q102.08-6.2 92.59-4.31L92.59-4.31ZM116.94-10.9Q124.85-9.14 131.53-4.53L131.53-4.53Q132.14-4.09 131.75-3.47L131.75-3.47 131.7-3.43Q131.22-2.68 130.56-3.03L130.56-3.03 130.52-3.08Q124.01-7.56 115.93-9.27L115.93-9.27Q115.18-9.4 115.27-10.15L115.27-10.15 115.27-10.2Q115.53-10.94 116.1-11.03L116.1-11.03 115.88-11.38Q115.62-12.13 116.19-12.52L116.19-12.52 116.24-12.52 116.32-12.57Q121.33-14.28 125.11-16.61L125.11-16.61Q125.68-17.05 126.17-16.48L126.17-16.48 126.21-16.44Q126.69-15.64 126.12-15.16L126.12-15.16 126.08-15.12Q122.34-12.7 116.94-10.9L116.94-10.9ZM132.58-24.74L119.49-24.74Q123.49-19.86 131-17.36L131-17.36 131.04-17.36Q131.62-17.18 131.57-16.52L131.57-16.52 131.57-16.44 131.53-16.35Q131.35-15.6 130.74-15.56L130.74-15.56Q130.61-15.56 130.52-15.6L130.52-15.6Q121.68-18.59 117.29-24.74L117.29-24.74 106.61-24.74Q103.36-20.08 98.39-16.92L98.39-16.92Q102.74-15.38 106.17-12.61L106.17-12.61Q106.7-12.08 106.3-11.47L106.3-11.47 106.26-11.43Q105.64-10.81 105.07-11.16L105.07-11.16 104.99-11.25Q101.6-13.93 97.56-15.29L97.56-15.29 97.51-15.29Q97.03-15.42 96.94-16.04L96.94-16.04Q94.88-14.9 92.77-14.02L92.77-14.02 92.72-14.02Q92.02-13.8 91.71-14.5L91.71-14.5 91.71-14.55Q91.63-14.81 91.63-15.03L91.63-15.03Q91.63-15.51 92.07-15.73L92.07-15.73 92.11-15.73Q99.84-18.76 104.5-24.74L104.5-24.74 92.55-24.74Q91.89-24.74 91.76-25.44L91.76-25.44 91.76-25.58Q91.76-26.37 92.37-26.5L92.37-26.5 92.55-26.54 105.73-26.54Q107.01-28.61 108.06-31.03L108.06-31.03 97.56-31.03Q96.9-31.03 96.77-31.68L96.77-31.68 96.77-31.82Q96.77-32.61 97.38-32.74L97.38-32.74 97.56-32.78 108.72-32.78Q109.25-34.37 109.95-37.18L109.95-37.18 96.02-37.18Q95.36-37.18 95.23-37.84L95.23-37.84 95.23-37.97Q95.23-38.8 95.84-38.94L95.84-38.94 96.02-38.98 110.26-38.98 110.74-42.63Q110.79-43.24 111.36-43.33L111.36-43.33 111.62-43.33Q112.41-43.29 112.54-42.63L112.54-42.63 112.54-42.45 112.1-38.98 128.98-38.98Q129.64-38.98 129.77-38.28L129.77-38.28 129.77-38.14Q129.77-37.31 129.11-37.18L129.11-37.18 111.75-37.18Q111.18-34.58 110.57-32.78L110.57-32.78 127.27-32.78Q127.92-32.78 128.06-32.12L128.06-32.12 128.06-31.99Q128.06-31.2 127.44-31.07L127.44-31.07 127.4-31.03 116.15-31.03Q116.81-28.83 118.21-26.54L118.21-26.54 132.45-26.54Q133.11-26.54 133.24-25.88L133.24-25.88 133.24-25.75Q133.24-24.92 132.63-24.79L132.63-24.79 132.58-24.74ZM107.75-26.54L116.15-26.54Q114.96-28.61 114.3-30.81L114.3-30.81 114.3-30.85 114.26-31.03 109.95-31.03Q108.98-28.61 107.75-26.54L107.75-26.54ZM172-15.86Q172-17.14 170.82-17.53L170.82-17.53 170.2-17.67 158.99-17.67Q157.76-17.67 157.37-16.61L157.37-16.61 157.24-15.86 157.28-7.51Q157.32-6.24 158.51-5.8L158.51-5.8 158.55-5.8 159.13-5.71 170.16-5.71Q171.39-5.71 171.83-6.9L171.83-6.9 171.96-7.51 172-15.86ZM159.79-36.52Q160.4-36.65 160.62-36.17L160.62-36.17 160.66-36.12Q162.38-32.48 164.58-29.36L164.58-29.36 164.62-29.31Q166.68-32.08 168.66-35.68L168.66-35.68Q169.23-36.91 168.27-37.35L168.27-37.35 167.52-37.49 160.22-37.49 159.79-36.52ZM147.61-31.16L147.61-29.97 147.83-29.79Q151.3-25.84 153.11-20.83L153.11-20.83Q153.33-20.08 152.58-19.82L152.58-19.82 152.53-19.82Q151.66-19.56 151.39-20.26L151.39-20.26 151.39-20.3Q150.07-23.99 147.61-27.29L147.61-27.29 147.61-2.5Q147.61-1.85 146.91-1.71L146.91-1.71 146.78-1.71Q145.99-1.71 145.85-2.33L145.85-2.33 145.81-2.5 145.81-29.58Q143-17.18 137.9-9.71L137.9-9.71Q137.42-9.1 136.8-9.49L136.8-9.49 136.76-9.54Q136.27-9.89 136.27-10.33L136.27-10.33Q136.27-10.5 136.36-10.72L136.36-10.72 136.41-10.81Q141.64-18.33 144.32-31.16L144.32-31.16 138.08-31.16Q137.37-31.16 137.24-31.82L137.24-31.82 137.24-31.95Q137.24-32.74 137.9-32.92L137.9-32.92 138.08-32.96 145.81-32.96 145.81-42.54Q145.81-43.2 146.47-43.33L146.47-43.33 146.6-43.33Q147.44-43.33 147.57-42.71L147.57-42.71 147.61-42.67 147.61-32.96 155.48-32.96Q158.64-37.22 160.53-42.85L160.53-42.85Q160.71-43.42 161.28-43.42L161.28-43.42Q161.32-43.42 161.41-43.42L161.41-43.42 161.46-43.37 161.54-43.37Q162.33-43.11 162.29-42.45L162.29-42.45Q162.29-42.41 162.25-42.32L162.25-42.32 161.1-39.29 168.4-39.29Q170.55-39.29 170.95-37.71L170.95-37.71 170.95-37.66Q171.17-36.78 170.68-35.68L170.68-35.68Q168.44-31.46 165.72-27.86L165.72-27.86Q170.77-21.62 177.85-18.85L177.85-18.85Q178.37-18.59 178.37-18.15L178.37-18.15Q178.37-18.02 178.33-17.89L178.33-17.89 178.33-17.84Q178.07-17.01 177.32-17.09L177.32-17.09 177.28-17.14 177.23-17.14Q169.94-20.04 164.62-26.41L164.62-26.41Q161.37-22.28 157.24-19.03L157.24-19.03Q157.94-19.47 158.99-19.47L158.99-19.47 170.2-19.47Q172.31-19.47 173.32-17.67L173.32-17.67Q173.8-16.88 173.8-15.91L173.8-15.91 173.8-15.86 173.76-7.51Q173.76-5.49 172-4.39L172-4.39Q171.12-3.91 170.16-3.91L170.16-3.91 159.13-3.91Q157.06-3.91 156.01-5.71L156.01-5.71Q155.48-6.5 155.48-7.51L155.48-7.51 155.43-15.86Q155.39-17.4 156.45-18.5L156.45-18.5Q153.9-16.57 150.86-15.03L150.86-15.03Q150.25-14.68 149.85-15.29L149.85-15.29 149.81-15.38Q149.41-16.17 149.94-16.57L149.94-16.57 149.99-16.61 150.07-16.66Q157.76-20.48 163.48-27.82L163.48-27.82Q161.02-31.2 159.08-35.24L159.08-35.24Q158.29-33.84 157.32-32.39L157.32-32.39 157.28-32.34 157.32-32.12Q157.32-31.33 156.71-31.2L156.71-31.2 156.67-31.16 156.36-31.16Q154.47-28.61 151.96-26.41L151.96-26.41Q151.39-25.88 150.86-26.46L150.86-26.46 150.82-26.5Q150.25-27.11 150.73-27.73L150.73-27.73 150.78-27.77Q152.97-29.75 154.07-31.16L154.07-31.16 147.61-31.16Z" transform="translate(-6.590000152587891, 43.41999816894531)"></path></g> <!----> <!----> <!----> <!----> <!----> <!----> <!----></g></g> <g data-gra="path-slogan" fill-rule="" class="tp-slogan iconsvg-slogansvg" fill="#5993d4" transform="translate(5,47.78999710083008)"><rect x="0" height="1" y="3.9750003814697266" width="36.63917541503906"></rect> <rect height="1" y="3.9750003814697266" width="36.63917541503906" x="125.14082336425781"></rect> <g transform="translate(39.63917541503906,0)"><g transform="scale(1)"><path d="M7.17-6.09L7.17-6.09L6.09-6.09Q6-7.73 3.94-7.83L3.94-7.83Q2.02-7.78 2.02-6.33L2.02-6.33Q2.02-5.39 3.05-5.25L3.05-5.25L5.48-4.69Q7.41-4.22 7.41-2.34L7.41-2.34Q7.36 0.05 4.03 0.14L4.03 0.14Q2.20 0.14 1.45-0.61L1.45-0.61Q0.52-1.31 0.56-2.77L0.56-2.77L1.69-2.77Q1.73-0.80 4.03-0.75L4.03-0.75Q6.28-0.80 6.33-2.20L6.33-2.20Q6.52-3.38 4.45-3.75L4.45-3.75L2.67-4.13Q0.84-4.64 0.84-6.19L0.84-6.19Q0.98-8.72 3.84-8.81L3.84-8.81Q7.08-8.81 7.17-6.09ZM10.03-5.06L14.53-5.06L14.53-8.58L15.70-8.58L15.70 0L14.53 0L14.53-3.98L10.03-3.98L10.03 0L8.86 0L8.86-8.58L10.03-8.58L10.03-5.06ZM23.16 0L22.31-2.48L18.84-2.48L17.95 0L16.78 0L20.02-8.58L21.33-8.58L24.42 0L23.16 0ZM20.58-7.31L19.22-3.52L21.89-3.52L20.63-7.31L20.58-7.31ZM26.86-8.58L31.17-1.64L31.17-8.58L32.30-8.58L32.30 0L30.98 0L26.63-6.94L26.58-6.94L26.58 0L25.45 0L25.45-8.58L26.86-8.58ZM40.83-8.58L37.92-4.41L40.97 0L39.52 0L37.17-3.52L34.83 0L33.42 0L36.52-4.41L33.61-8.58L35.06-8.58L37.22-5.30L39.42-8.58L40.83-8.58ZM42.23-8.58L43.41-8.58L43.41 0L42.23 0L42.23-8.58ZM50.91-7.59L48-7.59L48-8.58L54.94-8.58L54.94-7.59L52.03-7.59L52.03 0L50.91 0L50.91-7.59ZM61.64 0L60.80-2.48L57.33-2.48L56.44 0L55.27 0L58.50-8.58L59.81-8.58L62.91 0L61.64 0ZM59.06-7.31L57.70-3.52L60.38-3.52L59.11-7.31L59.06-7.31ZM64.13-8.58L65.30-8.58L65.30 0L64.13 0L64.13-8.58ZM73.69-3.61L71.06-3.61L71.06-4.59L74.81-4.59L74.81 0L74.06 0L73.78-1.08Q72.80 0.09 70.97 0.14L70.97 0.14Q69.23 0.14 68.30-0.75L68.30-0.75Q66.89-2.06 66.94-4.36L66.94-4.36Q67.27-8.63 71.02-8.81L71.02-8.81Q74.20-8.63 74.67-6L74.67-6L73.55-6Q73.08-7.78 70.97-7.83L70.97-7.83Q68.30-7.64 68.16-4.31L68.16-4.31Q68.16-0.75 71.02-0.75L71.02-0.75Q72.05-0.75 72.80-1.31L72.80-1.31Q73.73-2.06 73.69-3.61L73.69-3.61ZM77.91-1.03L83.06-1.03L83.06 0L76.73 0L76.73-8.58L82.97-8.58L82.97-7.59L77.91-7.59L77.91-4.92L82.59-4.92L82.59-3.89L77.91-3.89L77.91-1.03Z" transform="translate(-0.5602678571428572, 8.8125)"></path></g></g></g></g></g><defs v-gra="od"></defs></svg>